<?xml version="1.0" encoding="utf-8"?>
<!-- Generator: Adobe Illustrator 26.0.1, SVG Export Plug-In . SVG Version: 6.00 Build 0)  -->
<svg version="1.1" id="Layer_1" xmlns="http://www.w3.org/2000/svg" xmlns:xlink="http://www.w3.org/1999/xlink" x="0px" y="0px"
	 viewBox="0 0 596 191" style="enable-background:new 0 0 596 191;" xml:space="preserve">
<style type="text/css">
	.st0{fill:url(#SVGID_1_);}
	.st1{fill-rule:evenodd;clip-rule:evenodd;fill:#0F171D;}
	.st2{clip-path:url(#SVGID_00000164479654463190523300000017952363001213327235_);}
	.st3{fill:#FFFFFF;}
	.st4{fill:#FFFFFF;stroke:#000000;stroke-miterlimit:10;}
	.st5{fill-rule:evenodd;clip-rule:evenodd;}
	.st6{fill:#CA32FF;}
	.st7{fill-rule:evenodd;clip-rule:evenodd;fill:#43434F;}
	.st8{fill-rule:evenodd;clip-rule:evenodd;fill:url(#SVGID_00000127008417098728832050000007048974936198578863_);}
	.st9{fill-rule:evenodd;clip-rule:evenodd;fill:url(#SVGID_00000031200435062511984600000012801417668436908689_);}
	.st10{fill-rule:evenodd;clip-rule:evenodd;fill:url(#SVGID_00000112625868462282769600000010635967647941156748_);}
	.st11{fill-rule:evenodd;clip-rule:evenodd;fill:url(#SVGID_00000148649534396595195820000010633116385924567464_);}
	.st12{fill-rule:evenodd;clip-rule:evenodd;fill:url(#SVGID_00000103237851368913691920000001482405323943426957_);}
	.st13{fill-rule:evenodd;clip-rule:evenodd;fill:url(#SVGID_00000133498842977564404840000009774343763630823612_);}
	.st14{fill-rule:evenodd;clip-rule:evenodd;fill:url(#SVGID_00000183217363797010668770000015432975336875079312_);}
	.st15{fill-rule:evenodd;clip-rule:evenodd;fill:url(#SVGID_00000170246645975387509630000010872957136514789787_);}
	.st16{fill-rule:evenodd;clip-rule:evenodd;fill:url(#SVGID_00000085968359051482320110000017238410566516784002_);}
	.st17{fill-rule:evenodd;clip-rule:evenodd;fill:url(#SVGID_00000016064638741128606570000000269413516813241018_);}
	.st18{fill-rule:evenodd;clip-rule:evenodd;fill:url(#SVGID_00000121973722614540270190000007212105406638680509_);}
	.st19{fill-rule:evenodd;clip-rule:evenodd;fill:url(#SVGID_00000162343840769682532310000008906245188109132951_);}
	.st20{fill:url(#SVGID_00000110429781518495978860000006961116302033629616_);}
	.st21{fill:url(#SVGID_00000170264332195794297070000000776912814586837412_);}
	.st22{fill:url(#SVGID_00000161629062693867654020000006075835587559298739_);}
	.st23{fill:url(#SVGID_00000078759668151355641160000008017252587912852874_);}
	.st24{fill:url(#SVGID_00000117674295353822156330000008694615112865111175_);}
	.st25{fill:url(#SVGID_00000155125339844055906410000004676804085513145016_);}
	.st26{fill:url(#SVGID_00000088849256384010084110000006068078843012526232_);}
	.st27{fill:url(#SVGID_00000014593823535832148050000010986720428258695087_);}
	.st28{fill:url(#SVGID_00000165206083031088446340000009740415227113939641_);}
	.st29{fill:url(#SVGID_00000135659102764835345560000007727751215412705155_);}
	.st30{fill:url(#SVGID_00000086659950223101845250000001804400637451676032_);}
	.st31{fill:url(#SVGID_00000163065590818475089250000007791990081274278318_);}
	.st32{fill:url(#SVGID_00000166673353109663117530000015394228377293785003_);}
	.st33{fill:url(#SVGID_00000157290107293539653840000016897517316381664919_);}
	.st34{fill:url(#SVGID_00000022549647993228474730000015591563894323205292_);}
	.st35{fill:url(#SVGID_00000142861859393347692960000006114899345293200561_);}
	.st36{fill:url(#SVGID_00000036946515664761303640000010876976120970624435_);}
	.st37{fill:url(#SVGID_00000057861555338210153150000008228910231405088183_);}
	.st38{fill:url(#SVGID_00000014616239507919925470000002718334226030362041_);}
	.st39{fill:url(#SVGID_00000054243084703585815250000003274904049386095017_);}
	.st40{fill:url(#SVGID_00000154426112378314915000000008748499066622596530_);}
	.st41{fill:url(#SVGID_00000072988453166135069070000005344267244003117193_);}
	.st42{fill:url(#SVGID_00000026161290998370090290000008804040440990615982_);}
	.st43{fill:url(#SVGID_00000029030691004411001690000015447410648926686595_);}
	.st44{fill:url(#SVGID_00000112601945632489083920000000368614386504361640_);}
	.st45{fill:url(#SVGID_00000108281595042950875410000008929651066402727561_);}
	.st46{fill:url(#SVGID_00000044866766032357032440000006080345183735477648_);}
	.st47{fill:url(#SVGID_00000177470560027740113830000017715953919250924476_);}
	.st48{fill:url(#SVGID_00000070835947506197848070000003766644023939697836_);}
	.st49{fill:url(#SVGID_00000171682809084522627370000001071648803547039929_);}
	.st50{fill:url(#SVGID_00000119083703496515481420000012138221609755018414_);}
	.st51{fill:url(#SVGID_00000060736556372151945690000010193034576519350190_);}
	.st52{fill:url(#SVGID_00000057150275317160596050000009556185100920824717_);}
	.st53{fill:url(#SVGID_00000149340247758352931190000008777056876738550436_);}
	.st54{fill:url(#SVGID_00000149370071644083876850000012836337040164614811_);}
	.st55{fill:url(#SVGID_00000173150906547205060260000015522430720436743565_);}
	.st56{fill:url(#SVGID_00000108992177314569896990000017468082558165616260_);}
	.st57{fill:url(#SVGID_00000003820246798070998690000011117008833797142918_);}
	.st58{fill:url(#SVGID_00000171001487318971597710000015018212973082459829_);}
	.st59{fill:url(#SVGID_00000112624590763282767960000012900260114088168868_);}
	.st60{fill:url(#SVGID_00000143589508986691117420000004978072636752321423_);}
	.st61{fill:url(#SVGID_00000035510117403609461340000009821122457193820831_);}
	.st62{fill:url(#SVGID_00000013164474697901916830000011481653805500524205_);}
	.st63{fill:url(#SVGID_00000055707250201234379700000008717317203481184649_);}
	.st64{fill:url(#SVGID_00000093856281922425739600000009870128772483518637_);}
	.st65{fill:#00A995;}
	.st66{fill:#006699;}
	.st67{fill:#00386C;}
	.st68{fill:url(#SVGID_00000047021662579608331410000016490351253201606054_);}
	.st69{fill:url(#SVGID_00000097487266944822754070000001095151496611723911_);}
	.st70{fill:url(#SVGID_00000122690310742505371350000014441148351128885932_);}
	.st71{fill:url(#SVGID_00000067919165402161463730000014563259447533485749_);}
	.st72{fill:url(#SVGID_00000057832736035191971660000010467009912592872076_);}
	.st73{fill:url(#SVGID_00000181772637610417594240000003026524036632180378_);}
	.st74{fill:#001D33;}
	.st75{fill:url(#SVGID_00000034073547698365199820000009151863136776313755_);}
	.st76{fill:url(#SVGID_00000165952788878327180030000012041886824703023011_);}
	.st77{fill:url(#SVGID_00000096041022613355591720000001502867495170683575_);}
	.st78{fill:none;stroke:#FFFFFF;stroke-miterlimit:10;}
	.st79{fill:url(#SVGID_00000088820697615700646340000008676413201113478300_);}
	.st80{fill:url(#SVGID_00000161602160466734329460000000725556477375830945_);}
	.st81{fill:url(#SVGID_00000005235063321317420930000007247152703287219870_);}
	.st82{fill:none;stroke:#00A995;stroke-miterlimit:10;}
	.st83{fill:url(#SVGID_00000104693400378511625300000016394535321119287486_);}
	.st84{fill:url(#SVGID_00000171689499088230972450000003967339992248584608_);}
	.st85{fill:url(#SVGID_00000165949063990487558520000005097397643423321019_);}
</style>
<g>
	<g>
		<g>
			<path class="st65" d="M219.52,76l3.2-7.1c3.43,2.5,8.55,4.25,13.44,4.25c5.58,0,7.85-1.86,7.85-4.36
				c0-7.62-23.68-2.38-23.68-17.51c0-6.92,5.58-12.68,17.16-12.69c5.12,0,10.36,1.22,14.14,3.61l-2.91,7.16
				c-3.78-2.15-7.68-3.2-11.29-3.2c-5.58,0-7.74,2.1-7.74,4.66c0,7.51,23.68,2.33,23.68,17.28c0,6.81-5.64,12.63-17.28,12.63
				C229.65,80.71,223.13,78.79,219.52,76z"/>
			<path class="st65" d="M286.66,71.28l-18.91,0l-3.61,8.73l-9.66,0l18.15-40.73l9.31,0L300.16,80l-9.89,0L286.66,71.28z
				 M283.7,64.12l-6.46-15.59l-6.46,15.59L283.7,64.12z"/>
			<path class="st65" d="M313.83,46.84l0,10.76l18.85,0l0,7.56l-18.85,0l0,14.84l-9.43,0l0-40.73l30.78,0l0,7.56L313.83,46.84z"/>
			<path class="st65" d="M373.12,72.43V80l-31.53,0l0-40.73l30.78,0l0,7.56l-21.41,0l0,8.84l18.91,0l0,7.33l-18.91,0l0,9.43
				L373.12,72.43z"/>
		</g>
	</g>
	<g>
		<g>
			<path class="st66" d="M258.04,106.11c0,9.08-6.81,14.72-17.69,14.72l-8.2,0l0,11.23l-9.43,0l0-40.73l17.63,0
				C251.23,91.33,258.04,96.97,258.04,106.11z M248.5,106.11c0-4.48-2.91-7.1-8.67-7.1l-7.68,0l0,14.14l7.68,0
				C245.59,113.15,248.5,110.53,248.5,106.11z"/>
			<path class="st66" d="M302.08,91.32l0,40.73l-9.43,0l0-16.7l-18.5,0l0,16.7l-9.43,0l0-40.73l9.43,0l0,16.06l18.5,0l0-16.06
				L302.08,91.32z"/>
			<path class="st66" d="M338.56,123.32l-18.91,0l-3.61,8.73l-9.66,0l18.15-40.73l9.31,0l18.21,40.73l-9.89,0L338.56,123.32z
				 M335.59,116.16l-6.46-15.59l-6.46,15.59L335.59,116.16z"/>
			<path class="st66" d="M382.26,132.04l-7.86-11.34h-0.47l-8.2,0l0,11.35l-9.43,0l0-40.73l17.63,0c10.88,0,17.69,5.64,17.69,14.78
				c0,6.11-3.08,10.59-8.38,12.86l9.14,13.09L382.26,132.04z M373.41,99l-7.68,0l0,14.2l7.68,0c5.76,0,8.67-2.68,8.67-7.1
				C382.08,101.61,379.17,99,373.41,99z"/>
			<path class="st66" d="M436.13,132.04l-0.06-24.44l-11.98,20.13l-4.25,0l-11.93-19.61l0,23.91l-8.84,0l0-40.73l7.8,0l15.25,25.31
				l15.01-25.31l7.74,0l0.12,40.73L436.13,132.04z"/>
			<path class="st66" d="M481.45,123.31l-18.91,0l-3.61,8.73l-9.66,0l18.15-40.73l9.31,0l18.21,40.73l-9.89,0L481.45,123.31z
				 M478.48,116.15l-6.46-15.59l-6.46,15.59L478.48,116.15z"/>
			<path class="st66" d="M496.05,111.67c0-12.28,9.42-21.06,22.11-21.06c7.04,0,12.92,2.56,16.76,7.21l-6.05,5.59
				c-2.74-3.14-6.17-4.77-10.24-4.77c-7.62,0-13.03,5.35-13.03,13.03c0,7.68,5.41,13.03,13.03,13.03c4.07,0,7.5-1.63,10.24-4.83
				l6.05,5.58c-3.84,4.71-9.72,7.27-16.81,7.27C505.48,132.73,496.05,123.94,496.05,111.67z"/>
			<path class="st66" d="M560.4,117.6l0,14.43l-9.42,0l0-14.55L535.21,91.3l10.01,0l10.88,18.09l10.88-18.1l9.25,0L560.4,117.6z"/>
		</g>
	</g>
	<g>
		<g>
			<path class="st74" d="M230.79,150.38l-5.73,0l-1.19,2.7h-1.59l4.88-10.79h1.53l4.9,10.79h-1.62L230.79,150.38z M230.25,149.15
				l-2.33-5.29l-2.33,5.29L230.25,149.15z"/>
			<path class="st74" d="M255.72,142.29l0,10.79h-1.54l0-4.81l-6.2,0l0,4.81h-1.54l0-10.79h1.54v4.64l6.2,0v-4.64H255.72z"/>
			<path class="st74" d="M261.63,147.68c0-3.16,2.43-5.52,5.75-5.52c3.28,0,5.72,2.34,5.72,5.52c0,3.17-2.43,5.52-5.72,5.52
				C264.07,153.2,261.63,150.84,261.63,147.68z M271.56,147.68c0-2.39-1.79-4.15-4.18-4.15c-2.42,0-4.21,1.76-4.21,4.15
				c0,2.39,1.79,4.15,4.21,4.15C269.77,151.83,271.56,150.07,271.56,147.68z"/>
			<path class="st74" d="M278.92,148.42v-6.13h1.54v6.07c0,2.39,1.1,3.47,3.04,3.47c1.94,0,3.05-1.08,3.05-3.47v-6.07h1.5v6.13
				c0,3.13-1.71,4.78-4.56,4.78C280.64,153.2,278.92,151.55,278.92,148.42z"/>
			<path class="st74" d="M293.76,151.84l0.57-1.2c0.8,0.72,2.17,1.25,3.56,1.25c1.87,0,2.67-0.73,2.67-1.67
				c0-2.64-6.54-0.97-6.54-4.98c0-1.66,1.29-3.08,4.13-3.08c1.26,0,2.57,0.34,3.47,0.96l-0.51,1.23c-0.94-0.6-2-0.88-2.96-0.88
				c-1.83,0-2.62,0.77-2.62,1.71c0,2.64,6.53,0.99,6.54,4.95c0,1.65-1.33,3.07-4.18,3.07C296.25,153.19,294.63,152.64,293.76,151.84
				z"/>
			<path class="st74" d="M315.7,151.73v1.34l-7.83,0l0-10.79l7.61,0v1.34l-6.07,0v3.31l5.41,0v1.31l-5.41,0l0,3.48L315.7,151.73z"/>
			<path class="st74" d="M328.56,147.67c0-3.16,2.44-5.52,5.75-5.52c3.28,0,5.72,2.34,5.72,5.52c0,3.17-2.43,5.52-5.72,5.52
				C331,153.19,328.56,150.83,328.56,147.67z M338.49,147.67c0-2.39-1.79-4.15-4.18-4.15c-2.42,0-4.21,1.76-4.21,4.15
				c0,2.39,1.79,4.15,4.21,4.15C336.7,151.82,338.49,150.06,338.49,147.67z"/>
			<path class="st74" d="M347.48,143.62v3.76l5.41,0v1.33l-5.41,0l0,4.36l-1.54,0l0-10.79l7.61,0v1.34L347.48,143.62z"/>
			<path class="st74" d="M376.97,153.06l-0.02-7.86l-3.9,6.55h-0.71l-3.9-6.5l0,7.81h-1.48l0-10.79h1.26l4.5,7.58l4.44-7.58h1.26
				l0.02,10.79H376.97z"/>
			<path class="st74" d="M393.07,151.72v1.34l-7.83,0l0-10.79l7.61,0v1.34l-6.07,0v3.31l5.41,0v1.31l-5.41,0l0,3.48L393.07,151.72z"
				/>
			<path class="st74" d="M399.11,142.27l4.55,0c3.47,0,5.83,2.19,5.83,5.39c0,3.21-2.36,5.39-5.83,5.39l-4.55,0L399.11,142.27z
				 M403.57,151.72c2.67,0,4.38-1.63,4.38-4.05c0-2.42-1.71-4.05-4.38-4.05h-2.91l0,8.11H403.57z"/>
			<path class="st74" d="M415.39,142.27h1.54l0,10.79h-1.54L415.39,142.27z"/>
			<path class="st74" d="M422.84,147.67c0-3.19,2.44-5.52,5.72-5.52c1.67,0,3.11,0.57,4.1,1.68l-1,0.97
				c-0.83-0.88-1.85-1.28-3.04-1.28c-2.43,0-4.24,1.76-4.24,4.15c0,2.39,1.8,4.15,4.24,4.15c1.19,0,2.2-0.42,3.04-1.29l1,0.97
				c-0.99,1.11-2.43,1.69-4.11,1.7C425.28,153.18,422.84,150.86,422.84,147.67z"/>
			<path class="st74" d="M438.41,142.27l1.54,0l0,10.79l-1.54,0L438.41,142.27z"/>
			<path class="st74" d="M456.02,142.27l0,10.79h-1.26l-6.47-8.04l0,8.04h-1.54l0-10.79H448l6.47,8.04l0-8.04H456.02z"/>
			<path class="st74" d="M470.63,151.71v1.34l-7.83,0l0-10.79l7.61,0v1.34l-6.07,0v3.31l5.41,0v1.31l-5.41,0l0,3.48L470.63,151.71z"
				/>
			<path class="st74" d="M475.7,151.82l0.57-1.2c0.8,0.72,2.17,1.25,3.56,1.25c1.87,0,2.67-0.72,2.67-1.66
				c0-2.64-6.54-0.97-6.54-4.98c0-1.66,1.29-3.08,4.13-3.08c1.26,0,2.57,0.34,3.47,0.96l-0.51,1.23c-0.94-0.6-2-0.88-2.96-0.88
				c-1.83,0-2.62,0.77-2.62,1.71c0,2.64,6.53,0.99,6.54,4.95c0,1.65-1.33,3.07-4.18,3.07C478.18,153.18,476.56,152.62,475.7,151.82z
				"/>
		</g>
	</g>
	<g>
		<linearGradient id="SVGID_1_" gradientUnits="userSpaceOnUse" x1="57.3788" y1="-22.0597" x2="140.3407" y2="110.6794">
			<stop  offset="0" style="stop-color:#00386C"/>
			<stop  offset="0.7041" style="stop-color:#007DB0"/>
			<stop  offset="0.8558" style="stop-color:#007EB2"/>
			<stop  offset="0.9193" style="stop-color:#0081B9"/>
			<stop  offset="0.9661" style="stop-color:#0088C6"/>
			<stop  offset="1" style="stop-color:#008FD5"/>
		</linearGradient>
		<path class="st0" d="M19.87,29.67C69.9,7.95,145.61,6.6,195.2,30.72c-0.92,35.01-19.3,80.68-43.64,103.01
			c20.19-29.3,24.98-65.44,25.55-92.26C132.03,28.35,83.79,27.4,39.08,41.45c-0.67,48.24,12.41,98.01,68,136.54
			C47.2,149.75,17.85,96.02,19.87,29.69C19.87,29.68,19.87,29.68,19.87,29.67z"/>
		
			<linearGradient id="SVGID_00000099660104045316419670000005484228929427798657_" gradientUnits="userSpaceOnUse" x1="-4982.4106" y1="131.3692" x2="-4982.4106" y2="52.8861" gradientTransform="matrix(-1 -9.612626e-05 -9.612626e-05 1 -4874.9097 -0.2007)">
			<stop  offset="0" style="stop-color:#007570"/>
			<stop  offset="0.7041" style="stop-color:#00A995"/>
			<stop  offset="0.8311" style="stop-color:#02A996"/>
			<stop  offset="0.8842" style="stop-color:#09AB97"/>
			<stop  offset="0.9235" style="stop-color:#16AF9A"/>
			<stop  offset="0.956" style="stop-color:#27B49D"/>
			<stop  offset="0.9839" style="stop-color:#3EBAA2"/>
			<stop  offset="1" style="stop-color:#4FBFA5"/>
		</linearGradient>
		<path style="fill:url(#SVGID_00000099660104045316419670000005484228929427798657_);" d="M120.26,131.65l0.01-62.97
			c0-8.57-6.94-15.51-15.51-15.51l-10.04,0l-0.01,62.97c0,8.57,6.94,15.51,15.51,15.51L120.26,131.65z"/>
		
			<linearGradient id="SVGID_00000051366136153781863480000014548095374582149771_" gradientUnits="userSpaceOnUse" x1="47.6711" y1="92.4059" x2="143.642" y2="92.4059">
			<stop  offset="0" style="stop-color:#007570"/>
			<stop  offset="0.7041" style="stop-color:#00A995"/>
			<stop  offset="0.8311" style="stop-color:#02A996"/>
			<stop  offset="0.8842" style="stop-color:#09AB97"/>
			<stop  offset="0.9235" style="stop-color:#16AF9A"/>
			<stop  offset="0.956" style="stop-color:#27B49D"/>
			<stop  offset="0.9839" style="stop-color:#3EBAA2"/>
			<stop  offset="1" style="stop-color:#4FBFA5"/>
		</linearGradient>
		<path style="fill:url(#SVGID_00000051366136153781863480000014548095374582149771_);" d="M146.73,79.64l-62.97-0.01
			c-8.57,0-15.51,6.94-15.51,15.51l0,10.04l62.97,0.01c8.57,0,15.51-6.94,15.51-15.51L146.73,79.64z"/>
	</g>
</g>
</svg>
